<?xml version="1.0" standalone="no"?>
<!DOCTYPE svg PUBLIC "-//W3C//DTD SVG 20010904//EN"
 "http://www.w3.org/TR/2001/REC-SVG-20010904/DTD/svg10.dtd">
<svg version="1.0" xmlns="http://www.w3.org/2000/svg"
 width="1280.000000pt" height="658.000000pt" viewBox="0 0 1280.000000 658.000000"
 preserveAspectRatio="xMidYMid meet">
<metadata>
Created by potrace 1.15, written by Peter Selinger 2001-2017
</metadata>
<g transform="translate(0.000000,658.000000) scale(0.100000,-0.100000)"
fill="#000000" stroke="none">
<path d="M267 5343 c-4 -549 -9 -1677 -12 -2508 -3 -830 -8 -1745 -11 -2031
l-6 -522 594 -6 c326 -3 1790 -10 3253 -16 1463 -5 3108 -13 3655 -16 l995 -7
918 908 917 907 0 447 0 448 288 6 c1179 27 1943 238 1942 538 -1 217 -325
334 -1090 393 -191 15 -491 29 -920 42 l-215 6 3 270 3 270 -906 913 -905 913
-873 6 c-479 3 -2004 10 -3387 16 -1383 5 -2902 12 -3376 16 l-861 6 -6 -999z
m9209 -1484 c87 -15 229 -88 292 -149 28 -28 52 -54 52 -58 0 -10 -17 -20
-242 -143 -199 -108 -288 -163 -288 -178 0 -17 59 -98 94 -129 73 -64 239
-132 419 -171 49 -11 91 -22 94 -24 11 -12 -55 -106 -116 -167 -159 -157 -394
-214 -607 -146 -197 63 -356 234 -405 436 -19 77 -16 222 5 295 90 308 386
491 702 434z m1689 -69 c805 -29 1251 -92 1438 -204 88 -53 98 -101 35 -165
-85 -87 -272 -161 -569 -225 -357 -78 -958 -133 -1349 -124 l-145 3 -3 355
c-1 195 -1 359 2 365 4 12 160 10 591 -5z m-1247 -297 c38 -91 53 -223 36
-326 -7 -37 -7 -37 -43 -31 -69 11 -227 53 -284 74 -56 21 -137 75 -144 95 -1
6 56 42 129 80 73 39 164 89 203 112 38 23 73 42 76 42 4 1 16 -20 27 -46z"/>
</g>
</svg>
